<svg xmlns="http://www.w3.org/2000/svg" enable-background="new 0 0 32 32" viewBox="0 0 32 32"><rect width="539" height="176" x="-18" y="-20" fill="#F3EEE9" display="none"/><path d="M22,3H10c-3.86,0-7,3.14-7,7v12c0,3.86,3.14,7,7,7h12c3.86,0,7-3.14,7-7V10C29,6.14,25.86,3,22,3z M27,22c0,2.757-2.243,5-5,5H10c-2.757,0-5-2.243-5-5V10c0-2.757,2.243-5,5-5h12c2.757,0,5,2.243,5,5V22z M16,10c-3.309,0-6,2.691-6,6s2.691,6,6,6s6-2.691,6-6S19.309,10,16,10z M16,20c-2.206,0-4-1.794-4-4s1.794-4,4-4s4,1.794,4,4S18.206,20,16,20z M24,9.5c0,0.828-0.672,1.5-1.5,1.5S21,10.328,21,9.5S21.672,8,22.5,8S24,8.672,24,9.5z"/></svg>