<svg xmlns="http://www.w3.org/2000/svg" viewBox="0 0 32 32"><linearGradient id="a" x1="24.492" x2="24.492" y1="23.59" y2="21.916" gradientUnits="userSpaceOnUse"><stop offset="0" stop-color="#ff2d76"/><stop offset="1" stop-color="#fb0000"/></linearGradient><path fill="url(#a)" d="M24.499 21.916c-.24 0-.413.067-.519.211-.105.135-.156.367-.156.688v.775h1.334v-.775c0-.322-.054-.553-.16-.688-.099-.144-.27-.211-.499-.211z"/><linearGradient id="b" x1="19.294" x2="19.294" y1="27.334" y2="21.889" gradientUnits="userSpaceOnUse"><stop offset="0" stop-color="#ff2d76"/><stop offset="1" stop-color="#fb0000"/></linearGradient><path fill="url(#b)" d="M19.294 21.889a.707.707 0 0 0-.32.074c-.105.05-.208.129-.311.234v4.784c.122.123.242.217.359.271a.85.85 0 0 0 .364.083c.185 0 .32-.054.407-.163.086-.107.132-.281.132-.528v-3.965c0-.259-.054-.457-.16-.59-.11-.134-.268-.2-.471-.2z"/><linearGradient id="c" x1="16" x2="16" y1="32" y2="14.684" gradientUnits="userSpaceOnUse"><stop offset="0" stop-color="#ff2d76"/><stop offset="1" stop-color="#fb0000"/></linearGradient><path fill="url(#c)" d="M27.683 15.938c-1.24-1.239-11.688-1.255-11.688-1.254 0-.001-10.446.016-11.689 1.253C3.063 17.178 3.06 23.3 3.06 23.336c0 .047.003 6.159 1.246 7.4C5.548 31.973 15.995 32 15.995 32s10.448-.027 11.688-1.264c1.248-1.244 1.258-7.4 1.258-7.4 0-.035-.014-6.157-1.258-7.398zm-16.656 3.608H9.268v8.894H7.566v-8.894H5.807v-1.512h5.22v1.512zM16 28.439h-1.507v-.843c-.281.312-.569.55-.873.711a1.816 1.816 0 0 1-.877.244c-.35 0-.61-.112-.79-.343-.174-.23-.264-.569-.264-1.028v-6.419h1.508v5.889c0 .183.032.313.093.395.067.082.17.122.31.122.111 0 .253-.054.422-.163.17-.108.324-.245.469-.411V20.76H16v7.679zm5.478-1.585c0 .543-.118.959-.355 1.25-.234.291-.579.433-1.027.433-.297 0-.559-.054-.789-.166a1.937 1.937 0 0 1-.645-.52v.589h-1.526V18.034h1.526v3.351c.205-.234.419-.413.647-.534.231-.123.462-.183.696-.183.479 0 .843.163 1.094.489.254.328.379.807.379 1.436v4.261zm5.234-2.066h-2.887v1.443c0 .405.049.685.147.842.102.157.271.233.512.233.25 0 .425-.066.524-.198.099-.132.151-.423.151-.876v-.35h1.552v.394c0 .788-.188 1.38-.568 1.781-.376.397-.942.594-1.693.594-.675 0-1.209-.209-1.597-.632-.387-.42-.585-1.001-.585-1.742V22.83c0-.664.215-1.209.642-1.628.426-.419.976-.629 1.653-.629.691 0 1.222.195 1.594.583.371.387.555.945.555 1.674v1.958z"/><linearGradient id="d" x1="22.068" x2="22.068" y1="11.586" y2="3.006" gradientUnits="userSpaceOnUse"><stop offset="0" stop-color="#ff2d76"/><stop offset="1" stop-color="#fb0000"/></linearGradient><path fill="url(#d)" d="M24.493 11.464h-1.7v-.934c-.31.343-.637.608-.977.786-.339.18-.667.27-.986.27-.396 0-.689-.126-.888-.378-.198-.252-.298-.629-.298-1.134V3.006h1.697V9.49c0 .2.039.345.11.434.069.09.187.135.345.135.124 0 .283-.06.474-.178.19-.118.366-.27.523-.456V3.006h1.7v8.458z"/><linearGradient id="e" x1="15.798" x2="15.798" y1="11.677" y2="2.793" gradientUnits="userSpaceOnUse"><stop offset="0" stop-color="#ff2d76"/><stop offset="1" stop-color="#fb0000"/></linearGradient><path fill="url(#e)" d="M17.592 3.408c-.451-.41-1.028-.615-1.731-.615-.771 0-1.387.195-1.844.583-.459.387-.688.909-.687 1.565v4.383c0 .719.224 1.29.668 1.716.447.424 1.043.637 1.785.637.773 0 1.378-.206 1.821-.618.439-.413.659-.979.659-1.702V4.989c.001-.645-.224-1.172-.671-1.581zm-1.059 6.076c0 .225-.067.403-.203.534-.137.128-.318.193-.548.193-.226 0-.399-.062-.519-.189-.12-.129-.182-.307-.182-.538V4.877c0-.185.067-.335.195-.449a.745.745 0 0 1 .507-.17c.223 0 .405.056.543.17a.553.553 0 0 1 .208.449v4.607z"/><linearGradient id="f" x1="9.984" x2="9.984" y1="11.464" y2="0" gradientUnits="userSpaceOnUse"><stop offset="0" stop-color="#ff2d76"/><stop offset="1" stop-color="#fb0000"/></linearGradient><path fill="url(#f)" d="M8.702 0H6.774l2.279 6.922v4.542h1.913V6.707L13.193 0h-1.946l-1.182 4.582h-.12z"/></svg>